<?xml version="1.0" encoding="UTF-8"?>
<svg xmlns="http://www.w3.org/2000/svg" xmlns:xlink="http://www.w3.org/1999/xlink" width="375pt" height="374.999991pt" viewBox="0 0 375 374.999991" version="1.2">
<defs>
<clipPath id="clip1">
  <path d="M 33.042969 123.066406 L 129 123.066406 L 129 252 L 33.042969 252 Z M 33.042969 123.066406 "/>
</clipPath>
<clipPath id="clip2">
  <path d="M 272.671875 119 L 342.28125 119 L 342.28125 256 L 272.671875 256 Z M 272.671875 119 "/>
</clipPath>
<clipPath id="clip3">
  <path d="M 146 84 L 258 84 L 258 292 L 146 292 Z M 146 84 "/>
</clipPath>
<clipPath id="clip4">
  <path d="M 122.085938 265.855469 L 218.140625 79.113281 L 276.167969 108.960938 L 180.109375 295.703125 Z M 122.085938 265.855469 "/>
</clipPath>
<clipPath id="clip5">
  <path d="M 122.085938 265.855469 L 218.140625 79.113281 L 276.167969 108.960938 L 180.109375 295.703125 Z M 122.085938 265.855469 "/>
</clipPath>
</defs>
<g id="surface1">
<g clip-path="url(#clip1)" clip-rule="nonzero">
<path style=" stroke:none;fill-rule:nonzero;fill:rgb(100%,74.119568%,34.899902%);fill-opacity:1;" d="M 118.59375 123.160156 C 117.398438 123.117188 116.226562 123.273438 115.082031 123.628906 C 113.9375 123.980469 112.882812 124.515625 111.917969 125.226562 L 37.496094 178.382812 C 37.152344 178.628906 36.828125 178.894531 36.515625 179.179688 C 36.203125 179.460938 35.910156 179.761719 35.636719 180.082031 C 35.359375 180.402344 35.105469 180.734375 34.867188 181.085938 C 34.632812 181.433594 34.417969 181.796875 34.226562 182.171875 C 34.035156 182.546875 33.863281 182.929688 33.714844 183.324219 C 33.570312 183.71875 33.445312 184.121094 33.347656 184.53125 C 33.25 184.941406 33.171875 185.355469 33.125 185.773438 C 33.074219 186.191406 33.050781 186.613281 33.050781 187.03125 C 33.050781 187.453125 33.074219 187.875 33.125 188.292969 C 33.171875 188.710938 33.25 189.125 33.347656 189.535156 C 33.445312 189.945312 33.570312 190.347656 33.714844 190.742188 C 33.863281 191.136719 34.035156 191.519531 34.226562 191.894531 C 34.417969 192.269531 34.632812 192.632812 34.867188 192.980469 C 35.105469 193.332031 35.359375 193.664062 35.636719 193.984375 C 35.910156 194.300781 36.203125 194.605469 36.515625 194.886719 C 36.828125 195.171875 37.152344 195.4375 37.496094 195.683594 L 111.917969 248.839844 C 112.484375 249.269531 113.089844 249.640625 113.730469 249.949219 C 114.371094 250.257812 115.035156 250.5 115.722656 250.675781 C 116.414062 250.851562 117.113281 250.957031 117.824219 250.992188 C 118.535156 251.027344 119.242188 250.988281 119.941406 250.882812 C 120.644531 250.777344 121.332031 250.601562 122 250.355469 C 122.667969 250.113281 123.304688 249.804688 123.910156 249.433594 C 124.515625 249.058594 125.078125 248.632812 125.597656 248.144531 C 126.117188 247.660156 126.585938 247.128906 127 246.550781 C 127.414062 245.972656 127.765625 245.359375 128.054688 244.710938 C 128.34375 244.058594 128.566406 243.386719 128.722656 242.695312 C 128.878906 242 128.964844 241.296875 128.976562 240.585938 C 128.992188 239.875 128.9375 239.171875 128.808594 238.472656 C 128.683594 237.773438 128.488281 237.089844 128.222656 236.429688 C 127.960938 235.769531 127.632812 235.144531 127.242188 234.546875 C 126.855469 233.953125 126.410156 233.402344 125.910156 232.898438 C 125.410156 232.390625 124.867188 231.941406 124.273438 231.542969 L 61.957031 187.03125 L 124.273438 142.523438 C 125.191406 141.886719 125.988281 141.125 126.667969 140.238281 C 127.34375 139.347656 127.871094 138.378906 128.242188 137.328125 C 128.613281 136.273438 128.816406 135.191406 128.84375 134.074219 C 128.875 132.957031 128.734375 131.863281 128.417969 130.792969 C 128.105469 129.722656 127.632812 128.722656 127.003906 127.800781 C 126.375 126.878906 125.621094 126.074219 124.738281 125.390625 C 123.859375 124.703125 122.894531 124.171875 121.84375 123.789062 C 120.792969 123.410156 119.710938 123.199219 118.59375 123.160156 Z M 118.59375 123.160156 "/>
</g>
<g clip-path="url(#clip2)" clip-rule="nonzero">
<path style=" stroke:none;fill-rule:nonzero;fill:rgb(32.159424%,44.309998%,100%);fill-opacity:1;" d="M 335.164062 187.589844 L 273.855469 124.421875 C 272.6875 123.21875 272.714844 121.296875 273.917969 120.128906 C 275.121094 118.957031 277.039062 118.984375 278.207031 120.191406 L 341.570312 185.472656 C 341.632812 185.539062 341.679688 185.613281 341.734375 185.683594 C 341.800781 185.761719 341.867188 185.835938 341.925781 185.921875 C 341.980469 186.007812 342.023438 186.101562 342.070312 186.191406 C 342.117188 186.277344 342.164062 186.359375 342.199219 186.449219 C 342.238281 186.542969 342.265625 186.640625 342.292969 186.742188 C 342.320312 186.832031 342.351562 186.917969 342.367188 187.011719 C 342.386719 187.109375 342.390625 187.207031 342.402344 187.304688 C 342.410156 187.398438 342.421875 187.496094 342.421875 187.589844 C 342.421875 187.6875 342.410156 187.78125 342.402344 187.875 C 342.390625 187.972656 342.386719 188.074219 342.367188 188.171875 C 342.351562 188.261719 342.320312 188.351562 342.292969 188.441406 C 342.261719 188.539062 342.238281 188.636719 342.199219 188.734375 C 342.164062 188.820312 342.113281 188.902344 342.070312 188.988281 C 342.023438 189.078125 341.980469 189.171875 341.925781 189.257812 C 341.867188 189.34375 341.800781 189.417969 341.734375 189.5 C 341.679688 189.566406 341.632812 189.640625 341.570312 189.707031 L 278.207031 254.992188 C 277.609375 255.605469 276.820312 255.910156 276.03125 255.910156 C 275.269531 255.910156 274.507812 255.625 273.917969 255.054688 C 272.714844 253.882812 272.6875 251.960938 273.855469 250.757812 Z M 335.164062 187.589844 "/>
</g>
<g clip-path="url(#clip3)" clip-rule="nonzero">
<g clip-path="url(#clip4)" clip-rule="nonzero">
<g clip-path="url(#clip5)" clip-rule="nonzero">
<path style=" stroke:none;fill-rule:nonzero;fill:rgb(32.939148%,32.939148%,32.939148%);fill-opacity:1;" d="M 211.765625 107.59375 C 211.304688 107.21875 211.140625 107.089844 210.960938 106.050781 C 210.117188 102.769531 209.378906 97.875 210.996094 93.410156 C 212.382812 88.898438 216.65625 84.441406 227.195312 84.722656 C 227.578125 84.730469 229.246094 85.027344 229.910156 85.414062 C 236.875 91.152344 243.394531 97.75 248.839844 106.101562 C 251.550781 110.253906 253.921875 114.976562 255.566406 120.25 C 257.1875 125.503906 258.082031 131.351562 257.636719 137.273438 C 257.101562 145.269531 254.128906 152.871094 250.21875 158.859375 C 246.292969 164.886719 241.632812 169.769531 236.8125 173.9375 C 234.390625 175.953125 231.925781 177.867188 229.433594 179.652344 C 226.914062 181.289062 224.417969 183.128906 221.855469 184.558594 C 219.300781 185.992188 216.769531 187.628906 214.183594 188.882812 C 211.679688 190.15625 209.167969 191.429688 206.671875 192.738281 C 199.59375 196.113281 193.207031 200.269531 187.824219 205.007812 C 187.824219 205.007812 187.332031 205.3125 186.585938 205.972656 C 185.832031 206.625 184.664062 207.535156 183.277344 208.742188 C 180.640625 211.226562 177.097656 214.871094 174.097656 219.828125 C 171.078125 224.761719 168.597656 231.089844 167.601562 238.222656 C 166.453125 245.3125 166.78125 253.066406 167.703125 260.164062 C 169.714844 272.15625 172.457031 280.089844 173.46875 284.917969 C 174.558594 289.734375 174.257812 291.597656 172.3125 291.289062 C 168.433594 290.460938 158.671875 280.074219 152.210938 263.566406 C 152.371094 264.46875 150.441406 260.070312 148.664062 252.332031 C 146.902344 244.664062 145.679688 233.210938 148.117188 221.503906 C 150.242188 209.722656 156.460938 198.742188 162.046875 191.746094 C 163.382812 189.894531 164.804688 188.4375 166.019531 187.082031 C 167.253906 185.738281 168.308594 184.519531 169.269531 183.675781 C 171.15625 181.914062 172.238281 180.90625 172.238281 180.90625 C 179.179688 175.339844 186.585938 170.785156 194.15625 167.085938 L 200.890625 163.644531 C 203.109375 162.578125 205.046875 161.277344 207.144531 160.117188 C 209.25 158.953125 211.027344 157.574219 212.996094 156.328125 C 214.832031 155 216.578125 153.628906 218.257812 152.253906 C 221.5 149.4375 224.195312 146.460938 226.109375 143.554688 C 228.019531 140.621094 228.949219 137.898438 229.121094 135.222656 C 229.363281 131.304688 228.054688 126.628906 224.804688 121.664062 C 221.617188 116.75 216.992188 111.867188 211.765625 107.59375 "/>
</g>
</g>
</g>
</g>
</svg>
